<svg width="126" height="24" viewBox="0 0 126 24" fill="none" xmlns="http://www.w3.org/2000/svg">
<path d="M11.782 0C8.37963 0 0 8.53443 0 11.9999C0 15.4654 8.37963 24 11.782 24C15.1844 24 23.5642 15.4653 23.5642 11.9999C23.5642 8.53458 15.1845 0 11.782 0ZM9.94598 18.8619C8.51124 18.4637 4.65378 11.5912 5.04481 10.1299C5.43584 8.66856 12.1834 4.73984 13.6181 5.1381C15.0529 5.5363 18.9104 12.4087 18.5194 13.87C18.1283 15.3314 11.3807 19.2602 9.94598 18.8619Z" fill="#836EF9"/>
<path d="M40.0339 14.6585V14.6541L33.3393 2.07809C33.2075 1.83055 32.8433 1.88983 32.7939 2.16688L29.4599 20.8444C29.4272 21.0274 29.5653 21.1959 29.7479 21.1959H32.3274C32.469 21.1959 32.5902 21.0928 32.6155 20.951L34.5571 10.053L39.7758 20.1861C39.8854 20.399 40.1847 20.399 40.2943 20.1861L45.5131 10.053L47.4546 20.951C47.4799 21.0928 47.6012 21.1959 47.7427 21.1959H50.3222C50.5048 21.1959 50.6429 21.0274 50.6102 20.8444L47.2762 2.16688C47.2268 1.88983 46.8626 1.83055 46.7308 2.07809L40.0339 14.6585Z" fill="#FBFAF9"/>
<path d="M61.4565 2.42969C56.1462 2.42969 51.9863 6.63263 51.9863 11.9992C51.9863 17.3657 56.1462 21.571 61.4565 21.571C66.7531 21.571 70.9026 17.3669 70.9026 11.9992C70.9026 6.63145 66.7531 2.42969 61.4565 2.42969ZM61.4565 18.3667C57.9936 18.3667 55.2805 15.5694 55.2805 11.9992C55.2805 8.42887 57.9936 5.63393 61.4565 5.63393C64.9057 5.63393 67.6085 8.43005 67.6085 11.9992C67.6085 15.5683 64.9057 18.3667 61.4565 18.3667Z" fill="#FBFAF9"/>
<path d="M85.4983 14.1948L74.394 2.02161C74.2129 1.82309 73.8867 1.9536 73.8867 2.22457V20.898C73.8867 21.0627 74.0178 21.1962 74.1795 21.1962H76.864C77.0257 21.1962 77.1567 21.0627 77.1567 20.898V9.7837L88.2365 21.9799C88.4174 22.179 88.7442 22.0487 88.7442 21.7774V3.10388C88.7442 2.9392 88.6131 2.80569 88.4514 2.80569H85.7911C85.6294 2.80569 85.4983 2.9392 85.4983 3.10388V14.1948Z" fill="#FBFAF9"/>
<path d="M91.591 21.1945H94.4735C94.5876 21.1945 94.6914 21.1268 94.7393 21.0213L96.8986 16.2583H103.804L105.914 21.019C105.962 21.1258 106.066 21.1945 106.181 21.1945H109.309C109.525 21.1945 109.666 20.9645 109.572 20.7665L100.714 2.09423C100.607 1.86963 100.293 1.86963 100.186 2.09423L91.3274 20.7665C91.2334 20.9645 91.3751 21.1945 91.591 21.1945ZM98.2523 13.3031L100.398 8.55989L102.504 13.3031H98.2523Z" fill="#FBFAF9"/>
<path d="M116.57 2.80469H112.14C111.979 2.80469 111.848 2.93819 111.848 3.10288V20.897C111.848 21.0617 111.979 21.1952 112.14 21.1952H116.57C122.062 21.1952 125.474 17.6717 125.474 11.9988C125.474 6.32586 122.062 2.80469 116.57 2.80469ZM116.57 18.0401H115.142V5.93526H116.57C120.135 5.93526 122.18 8.14548 122.18 11.9988C122.18 15.838 120.135 18.0401 116.57 18.0401Z" fill="#FBFAF9"/>
</svg>
